<svg width="375" height="261" viewBox="0 0 375 261" fill="none" xmlns="http://www.w3.org/2000/svg">
<g clip-path="url(#clip0_1674_9303)">
<path fill-rule="evenodd" clip-rule="evenodd" d="M375 0H0V315.681C87.8848 299.93 183.025 308.985 277.166 317.945C310.016 321.072 342.744 324.187 375 326.232V0Z" fill="url(#paint0_linear_1674_9303)"/>
<path d="M277.166 309.945C399.659 321.604 520.459 333.101 621.38 289.581C670.593 268.36 688.144 247.273 705.738 226.136C723.6 204.676 741.506 183.164 792.631 161.403C902.46 114.655 1183.83 181.907 1214.71 189.513C1216.64 189.989 1218.48 190.201 1220.47 190.201H1703C1716.25 190.201 1727 200.946 1727 214.201V222.201C1727 208.946 1716.25 198.201 1703 198.201H1220.47C1218.48 198.201 1216.64 197.989 1214.71 197.513C1183.83 189.907 902.46 122.655 792.631 169.403C741.506 191.164 723.6 212.676 705.738 234.136C688.144 255.273 670.593 276.36 621.38 297.581C520.459 341.101 399.659 329.604 277.166 317.945C164.515 307.224 50.4315 296.366 -50.9375 328.039C-136.013 354.622 -218.866 476.09 -266.924 546.547C-281.056 567.265 -292.18 583.573 -299.466 591.76C-317.036 611.501 -343.864 629.268 -387.441 643.087C-418.393 652.903 -487.39 652.616 -524.769 651.626C-538.51 651.263 -550 662.24 -550 675.986V667.986C-550 654.24 -538.51 643.263 -524.769 643.626C-487.39 644.616 -418.393 644.903 -387.441 635.087C-343.864 621.268 -317.036 603.501 -299.466 583.76C-292.18 575.573 -281.056 559.265 -266.924 538.547C-218.866 468.09 -136.013 346.622 -50.9375 320.039C50.4315 288.366 164.515 299.224 277.166 309.945Z" fill="#E5F6F3"/>
</g>
<defs>
<linearGradient id="paint0_linear_1674_9303" x1="10.8984" y1="501" x2="252.656" y2="501" gradientUnits="userSpaceOnUse">
<stop stop-color="#0FD7BD"/>
<stop offset="1" stop-color="#129B89"/>
</linearGradient>
<clipPath id="clip0_1674_9303">
<rect width="375" height="261" fill="white"/>
</clipPath>
</defs>
</svg>
