<svg width="375" height="65" viewBox="0 0 375 65" fill="none" xmlns="http://www.w3.org/2000/svg">
<g clip-path="url(#clip0_1674_9309)">
<path fill-rule="evenodd" clip-rule="evenodd" d="M375 -261H0V54.6815C87.8848 38.9302 183.025 47.9854 277.166 56.9454C310.016 60.0719 342.744 63.1869 375 65.2322V-261Z" fill="url(#paint0_linear_1674_9309)"/>
<path d="M277.166 48.9454C399.659 60.6038 520.459 72.1012 621.38 28.5813C670.593 7.35966 688.144 -13.7265 705.738 -34.8641C723.6 -56.3235 741.506 -77.8359 792.631 -99.5967C902.46 -146.345 1183.83 -79.0933 1214.71 -71.4866C1216.64 -71.0106 1218.48 -70.7988 1220.47 -70.7988H1703C1716.25 -70.7988 1727 -60.0536 1727 -46.7988V-38.7987C1727 -52.0535 1716.25 -62.7987 1703 -62.7987H1220.47C1218.48 -62.7987 1216.64 -63.0106 1214.71 -63.4866C1183.83 -71.0933 902.46 -138.345 792.631 -91.5967C741.506 -69.8359 723.6 -48.3235 705.738 -26.8641C688.144 -5.7265 670.593 15.3597 621.38 36.5813C520.459 80.1012 399.659 68.6039 277.166 56.9454C164.515 46.2236 50.4315 35.3656 -50.9375 67.0395C-136.013 93.6222 -218.866 215.09 -266.924 285.547C-281.056 306.265 -292.18 322.573 -299.466 330.76C-317.036 350.501 -343.864 368.268 -387.441 382.087C-418.393 391.903 -487.39 391.616 -524.769 390.626C-538.51 390.263 -550 401.24 -550 414.986V406.986C-550 393.24 -538.51 382.263 -524.769 382.626C-487.39 383.616 -418.393 383.903 -387.441 374.087C-343.864 360.268 -317.036 342.501 -299.466 322.76C-292.18 314.573 -281.056 298.265 -266.924 277.547C-218.866 207.09 -136.013 85.6222 -50.9375 59.0394C50.4315 27.3656 164.515 38.2236 277.166 48.9454Z" fill="#E5F6F3"/>
</g>
<defs>
<linearGradient id="paint0_linear_1674_9309" x1="10.8984" y1="240" x2="252.656" y2="240" gradientUnits="userSpaceOnUse">
<stop stop-color="#0FD7BD"/>
<stop offset="1" stop-color="#129B89"/>
</linearGradient>
<clipPath id="clip0_1674_9309">
<rect width="375" height="65" fill="white"/>
</clipPath>
</defs>
</svg>
