<svg width="622" height="307" viewBox="0 0 622 307" fill="none" xmlns="http://www.w3.org/2000/svg">
<g clip-path="url(#clip0_1672_9242)">
<mask id="mask0_1672_9242" style="mask-type:alpha" maskUnits="userSpaceOnUse" x="466" y="-129" width="2029" height="641">
<path d="M1509.8 353.307C1337.17 261.61 1099.25 392.444 910.707 319.876C812.605 282.119 717.82 69.9604 689.247 30.416C673.59 8.74777 649.684 -10.7536 610.854 -25.9213C584.102 -36.3714 525.454 -36.3892 491.559 -35.3893C477.705 -34.9806 466 -46.0099 466 -59.8701V-105C466 -118.255 476.745 -129 490 -129H2471C2484.26 -129 2495 -118.255 2495 -105V438.387C2495 451.642 2484.26 462.387 2471 462.387H2044.63C2042.21 462.387 2039.86 462.736 2037.53 463.437C2005.56 473.079 1759.2 544.75 1662.4 493.996C1571.97 446.585 1598.17 400.248 1509.8 353.307Z" fill="#E0E1EB"/>
</mask>
<g mask="url(#mask0_1672_9242)">
</g>
<mask id="mask1_1672_9242" style="mask-type:alpha" maskUnits="userSpaceOnUse" x="0" y="0" width="1600" height="307">
<rect width="1600" height="307" fill="#C4C4C4"/>
</mask>
<g mask="url(#mask1_1672_9242)">
<path fill-rule="evenodd" clip-rule="evenodd" d="M886.281 307C819.331 262.588 756.45 149.034 718.245 80.0419C705.652 57.3012 695.74 39.402 689.247 30.416C681.471 19.6544 671.66 9.42721 658.997 0H0V307H886.281Z" fill="url(#paint0_linear_1672_9242)"/>
</g>
<path d="M1344.51 319.3C1398.91 319.863 1450.77 328.33 1497.8 353.307C1541.65 376.6 1557.29 399.744 1572.97 422.945C1588.89 446.499 1604.84 470.111 1650.4 493.996C1676.58 507.725 1713.72 512.496 1754.59 511.96C1718.48 511.466 1686 506.368 1662.4 493.996C1616.84 470.111 1600.89 446.499 1584.97 422.945C1569.29 399.744 1553.65 376.6 1509.8 353.307C1459.33 326.499 1403.28 318.711 1344.51 319.3Z" fill="#E5F6F3"/>
<path d="M1045.84 342.838C999.141 342.379 953.644 336.402 910.707 319.876C834.898 290.699 761.069 157.376 718.245 80.0419C705.652 57.3012 695.74 39.402 689.247 30.416C673.59 8.74777 649.684 -10.7536 610.854 -25.9213C589.102 -34.4181 546.264 -36.018 512.79 -35.7818C543.935 -35.5531 579.63 -33.4308 598.854 -25.9213C637.684 -10.7536 661.59 8.7478 677.247 30.416C683.74 39.402 693.652 57.3012 706.245 80.0419C749.069 157.376 822.898 290.699 898.707 319.876C945.314 337.814 994.937 343.324 1045.84 342.838Z" fill="#E5F6F3"/>
<path d="M487.544 -35.5923C475.516 -37.177 466 -47.3728 466 -59.8701V-105C466 -118.255 476.745 -129 490 -129H478C464.745 -129 454 -118.255 454 -105V-59.87C454 -46.0099 465.705 -34.9805 479.559 -35.3892C482.09 -35.4639 484.76 -35.5329 487.544 -35.5923Z" fill="#E5F6F3"/>
</g>
<defs>
<linearGradient id="paint0_linear_1672_9242" x1="46.5" y1="307" x2="1078" y2="307" gradientUnits="userSpaceOnUse">
<stop stop-color="#0FD7BD"/>
<stop offset="1" stop-color="#129B89"/>
</linearGradient>
<clipPath id="clip0_1672_9242">
<rect width="622" height="307" fill="white"/>
</clipPath>
</defs>
</svg>
