<svg width="267" height="307" viewBox="0 0 267 307" fill="none" xmlns="http://www.w3.org/2000/svg">
<g clip-path="url(#clip0_1672_9252)">
<mask id="mask0_1672_9252" style="mask-type:alpha" maskUnits="userSpaceOnUse" x="-156" y="-129" width="2029" height="641">
<path d="M887.799 353.307C715.165 261.61 477.255 392.444 288.707 319.876C190.605 282.119 95.82 69.9604 67.2469 30.416C51.5905 8.74777 27.6842 -10.7536 -11.1458 -25.9213C-37.8983 -36.3714 -96.5462 -36.3892 -130.441 -35.3893C-144.295 -34.9806 -156 -46.0099 -156 -59.8701V-105C-156 -118.255 -145.255 -129 -132 -129H1849C1862.26 -129 1873 -118.255 1873 -105V438.387C1873 451.642 1862.26 462.387 1849 462.387H1422.63C1420.21 462.387 1417.86 462.736 1415.53 463.437C1383.56 473.079 1137.2 544.75 1040.4 493.996C949.969 446.585 976.171 400.248 887.799 353.307Z" fill="#E0E1EB"/>
</mask>
<g mask="url(#mask0_1672_9252)">
</g>
<mask id="mask1_1672_9252" style="mask-type:alpha" maskUnits="userSpaceOnUse" x="-622" y="0" width="1600" height="307">
<rect x="-622" width="1600" height="307" rx="24" fill="#C4C4C4"/>
</mask>
<g mask="url(#mask1_1672_9252)">
<path fill-rule="evenodd" clip-rule="evenodd" d="M264.281 307C197.331 262.588 134.45 149.034 96.2446 80.0419C83.6517 57.3012 73.7398 39.402 67.2469 30.416C59.4711 19.6544 49.6603 9.42721 36.9969 0H-598C-611.255 0 -622 10.7452 -622 24V283C-622 296.255 -611.255 307 -598 307H264.281Z" fill="url(#paint0_linear_1672_9252)"/>
</g>
<path d="M722.514 319.3C776.908 319.863 828.775 328.33 875.799 353.307C919.651 376.6 935.291 399.744 950.969 422.945C966.886 446.499 982.842 470.111 1028.4 493.996C1054.58 507.725 1091.72 512.496 1132.59 511.96C1096.48 511.466 1064 506.368 1040.4 493.996C994.842 470.111 978.886 446.499 962.969 422.945C947.291 399.744 931.651 376.6 887.799 353.307C837.328 326.499 781.278 318.711 722.514 319.3Z" fill="#E5F6F3"/>
<path d="M423.844 342.838C377.141 342.379 331.644 336.402 288.707 319.876C212.898 290.699 139.069 157.376 96.2446 80.0419C83.6517 57.3012 73.7398 39.402 67.2469 30.416C51.5905 8.74777 27.6842 -10.7536 -11.1458 -25.9213C-32.8978 -34.4181 -75.7357 -36.018 -109.21 -35.7818C-78.0653 -35.5531 -42.3703 -33.4308 -23.1458 -25.9213C15.6842 -10.7536 39.5905 8.7478 55.2469 30.416C61.7398 39.402 71.6517 57.3012 84.2445 80.0419C127.069 157.376 200.898 290.699 276.707 319.876C323.314 337.814 372.937 343.324 423.844 342.838Z" fill="#E5F6F3"/>
<path d="M-134.456 -35.5923C-146.484 -37.177 -156 -47.3728 -156 -59.8701V-105C-156 -118.255 -145.255 -129 -132 -129H-144C-157.255 -129 -168 -118.255 -168 -105V-59.87C-168 -46.0099 -156.295 -34.9805 -142.441 -35.3892C-139.91 -35.4639 -137.24 -35.5329 -134.456 -35.5923Z" fill="#E5F6F3"/>
</g>
<defs>
<linearGradient id="paint0_linear_1672_9252" x1="-575.5" y1="307" x2="456" y2="307" gradientUnits="userSpaceOnUse">
<stop stop-color="#0FD7BD"/>
<stop offset="1" stop-color="#129B89"/>
</linearGradient>
<clipPath id="clip0_1672_9252">
<rect width="267" height="307" fill="white"/>
</clipPath>
</defs>
</svg>
